<svg width="112" height="112" xmlns="http://www.w3.org/2000/svg" xmlns:xlink="http://www.w3.org/1999/xlink" xml:space="preserve" overflow="hidden"><defs><clipPath id="clip0"><rect x="727" y="361" width="112" height="112"/></clipPath></defs><g clip-path="url(#clip0)" transform="translate(-727 -361)"><path d="M764.199 399.28 813.864 399.28 813.864 393.862C813.864 391.671 812.088 389.895 809.898 389.895L780.173 389.895 769.273 382.661C768.621 382.24 767.868 382 767.093 381.967L748.467 381.967C746.276 381.967 744.5 383.743 744.5 385.934L744.5 435.394 744.54 435.394 757.665 403.508C758.837 400.949 761.385 399.301 764.199 399.28Z" fill="#E7501E"/><path d="M793.452 420.438C799.78 414.113 809.562 412.812 817.323 417.263L821.395 408.513C821.661 407.959 821.797 407.352 821.792 406.738 821.803 404.701 820.27 402.986 818.244 402.771L764.217 402.771C762.765 402.781 761.451 403.631 760.847 404.951L747.473 437.461 787.888 437.461C786.928 431.225 788.994 424.904 793.452 420.438Z" fill="#E7501E"/><path d="M800.877 427.863C798.366 430.376 797.502 434.098 798.647 437.461L807.919 437.461 812.861 426.844C809.152 424.221 804.092 424.649 800.877 427.859Z" fill="#E7501E"/><path d="M819.026 422.913C812.654 416.532 802.317 416.525 795.937 422.896 790.096 428.728 789.527 438 794.609 444.503L792.051 447.061C790.649 446.682 789.15 447.079 788.12 448.104L780.696 455.529C779.101 457.124 779.101 459.709 780.696 461.304 782.291 462.899 784.876 462.899 786.471 461.304L793.896 453.879C794.921 452.85 795.318 451.351 794.938 449.949L797.505 447.382C804.634 452.902 814.888 451.598 820.408 444.469 825.446 437.962 824.854 428.723 819.026 422.913ZM816.551 443.537C811.539 448.549 803.414 448.549 798.402 443.537 793.39 438.526 793.39 430.4 798.401 425.388 803.413 420.376 811.539 420.376 816.551 425.388 816.551 425.388 816.551 425.388 816.551 425.388 821.555 430.403 821.555 438.522 816.551 443.537Z" fill="#E7501E"/></g></svg>